<?xml version="1.0" standalone="no"?>
<!DOCTYPE svg PUBLIC "-//W3C//DTD SVG 20010904//EN"
 "http://www.w3.org/TR/2001/REC-SVG-20010904/DTD/svg10.dtd">
<svg version="1.0" xmlns="http://www.w3.org/2000/svg"
 width="92.000000pt" height="92.000000pt" viewBox="0 0 92.000000 92.000000"
 preserveAspectRatio="xMidYMid meet">

<g transform="translate(0.000000,92.000000) scale(0.100000,-0.100000)"
fill="#000000" stroke="none">
<path d="M0 460 l0 -460 460 0 460 0 0 460 0 460 -460 0 -460 0 0 -460z m638
294 c39 -16 43 -47 8 -69 -41 -27 -164 -47 -258 -42 -119 6 -167 38 -120 79
55 49 281 68 370 32z m17 -194 c7 0 16 10 20 23 l8 22 4 -22 c2 -13 9 -23 14
-23 5 0 9 -4 9 -10 0 -5 -7 -10 -15 -10 -18 0 -20 -26 -2 -33 7 -3 5 -6 -5 -6
-11 -1 -18 -9 -18 -21 0 -11 -4 -20 -10 -20 -5 0 -10 9 -10 20 0 11 -5 20 -11
20 -6 0 -13 -9 -16 -20 -3 -11 -9 -20 -13 -20 -15 0 -16 46 -2 59 11 11 11 15
1 21 -9 6 -8 12 4 25 10 9 18 22 18 28 1 7 4 2 6 -10 2 -13 10 -23 18 -23z
m-305 15 c0 -10 10 -15 30 -15 27 0 30 -3 30 -33 0 -33 -23 -77 -41 -77 -6 0
-3 10 5 22 26 36 21 66 -11 70 -20 2 -29 9 -31 26 -2 12 1 22 7 22 6 0 11 -7
11 -15z m-94 -42 l22 -28 7 28 c4 15 11 27 16 27 12 0 11 -13 -1 -46 -8 -21
-7 -31 5 -44 9 -10 12 -21 7 -24 -5 -3 -20 10 -33 28 -24 36 -39 38 -39 6 0
-10 -4 -21 -9 -24 -5 -3 -8 19 -7 49 0 30 3 55 6 55 2 0 14 -12 26 -27z m204
-28 c0 -30 -4 -55 -10 -55 -5 0 -10 18 -10 39 0 22 -3 46 -6 55 -4 11 -1 16
10 16 13 0 16 -11 16 -55z m100 19 c0 -53 -15 -74 -53 -73 -27 2 -28 2 -7 6
30 6 40 19 40 56 0 22 -4 27 -24 27 -14 0 -28 5 -31 10 -4 6 10 10 34 10 40 0
41 -1 41 -36z m52 -116 c2 -19 10 -24 46 -26 l42 -3 0 -56 c0 -50 -3 -58 -36
-91 -26 -26 -38 -32 -46 -24 -9 9 -5 19 15 40 19 20 27 39 27 65 0 36 -1 37
-40 37 l-40 0 0 40 c0 44 26 58 32 18z m-260 -63 c7 -65 -33 -145 -66 -132
-14 5 -12 12 9 43 14 20 25 49 25 65 0 27 -2 28 -52 31 -30 2 -53 8 -56 16 -3
9 15 12 66 12 l70 0 4 -35z m98 -4 c0 -51 -8 -71 -26 -64 -8 3 -14 19 -14 38
0 20 -6 35 -15 39 -27 10 -15 26 20 26 34 0 35 -1 35 -39z m90 -9 c0 -53 -5
-63 -25 -56 -9 4 -12 16 -8 40 4 27 2 34 -11 34 -9 0 -16 7 -16 15 0 10 10 15
30 15 29 0 30 -1 30 -48z m-290 -108 c0 -76 -2 -85 -17 -82 -15 3 -19 16 -21
72 -3 64 7 96 29 96 5 0 9 -39 9 -86z"/>
<path d="M392 740 c-73 -14 -128 -38 -115 -51 32 -32 246 -28 334 8 71 28 45
43 -81 49 -47 1 -109 -1 -138 -6z"/>
<path d="M630 525 c0 -8 7 -15 15 -15 8 0 15 7 15 15 0 8 -7 15 -15 15 -8 0
-15 -7 -15 -15z"/>
</g>
</svg>
